<svg id="Capa_1" enable-background="new 0 0 493.635 493.635" height="512" viewBox="0 0 493.635 493.635" width="512" xmlns="http://www.w3.org/2000/svg"><path d="m345.982 0h-198.33c-1.966 0-3.851.781-5.241 2.171l-140.24 140.24c-1.39 1.39-2.171 3.276-2.171 5.242v198.33c0 1.966.781 3.851 2.171 5.241l140.24 140.24c1.39 1.39 3.275 2.171 5.241 2.171h198.33c1.966 0 3.851-.781 5.241-2.171l140.24-140.24c1.39-1.39 2.171-3.275 2.171-5.241v-198.33c0-1.966-.781-3.851-2.171-5.241l-140.239-140.241c-1.39-1.39-3.276-2.171-5.242-2.171z" fill="#efedef"/><path d="m95.17 228.416c0-90.491 38.894-171.895 100.874-228.416h-48.391c-1.966 0-3.851.781-5.241 2.171l-140.241 140.24c-1.39 1.39-2.171 3.276-2.171 5.242v198.33c0 1.966.781 3.851 2.171 5.241l140.24 140.24c1.39 1.39 3.275 2.171 5.241 2.171h97.848c-90.052-54.01-150.33-152.57-150.33-265.219z" fill="#e5e1e5"/><path d="m158.974 458.529-123.868-123.868c-.068-.068-.106-.159-.106-.255v-175.177c0-.096.038-.187.106-.255l123.868-123.868c.068-.068.159-.106.255-.106h175.177c.096 0 .187.038.255.106l123.869 123.869c.068.068.105.159.105.255v175.177c0 .096-.038.187-.105.255l-123.869 123.867c-.068.068-.159.106-.255.106h-175.177c-.096 0-.187-.038-.255-.106z" fill="#ee6161"/><path d="m159.229 35c-.096 0-.187.038-.255.106l-123.868 123.868c-.068.068-.106.159-.106.255v175.177c0 .096.038.187.106.255l123.869 123.869c.068.068.159.106.255.106h38.825c-63.148-56.584-102.885-138.757-102.885-230.22 0-73.208 25.46-140.466 68.002-193.416z" fill="#e94444"/><g><g fill="#efedef"><path d="m120.586 208.713h24.732c4.142 0 7.5-3.358 7.5-7.5s-3.358-7.5-7.5-7.5h-24.732c-9.345 0-16.948 7.603-16.948 16.948v24.75c0 9.345 7.603 16.948 16.948 16.948h15.284c1.074 0 1.948.874 1.948 1.948v27.905c0 1.074-.874 1.948-1.948 1.948h-24.732c-4.142 0-7.5 3.358-7.5 7.5s3.358 7.5 7.5 7.5h24.732c9.345 0 16.948-7.603 16.948-16.948v-27.905c0-9.345-7.603-16.948-16.948-16.948h-15.284c-1.074 0-1.948-.874-1.948-1.948v-24.75c0-1.074.874-1.948 1.948-1.948z"/><path d="m226.031 193.713h-40.962c-4.142 0-7.5 3.358-7.5 7.5s3.358 7.5 7.5 7.5h12.981v82.947c0 4.142 3.358 7.5 7.5 7.5s7.5-3.358 7.5-7.5v-82.947h12.981c4.142 0 7.5-3.358 7.5-7.5s-3.358-7.5-7.5-7.5z"/><path d="m284.042 193.713c-15.878 0-28.797 12.918-28.797 28.797v47.854c0 15.878 12.918 28.796 28.797 28.796s28.797-12.918 28.797-28.796v-47.854c0-15.879-12.918-28.797-28.797-28.797zm13.797 76.65c0 7.607-6.189 13.796-13.797 13.796s-13.797-6.189-13.797-13.796v-47.854c0-7.607 6.189-13.797 13.797-13.797s13.797 6.189 13.797 13.797z"/><path d="m373.31 193.713h-19.956c-6.709 0-12.168 5.459-12.168 12.169v31.964 11.713 42.1c0 4.142 3.358 7.5 7.5 7.5s7.5-3.358 7.5-7.5v-34.24h17.124c17.536 0 31.802-14.266 31.802-31.802v-.104c0-17.534-14.266-31.8-31.802-31.8zm16.802 31.905c0 9.265-7.537 16.802-16.802 16.802h-17.124v-4.574-29.133h17.124c9.265 0 16.802 7.537 16.802 16.802z"/></g></g></svg>