<svg id="Capa_1" enable-background="new 0 0 512 512" height="512" viewBox="0 0 512 512" width="512" xmlns="http://www.w3.org/2000/svg"><g><circle cx="256" cy="105" fill="#e64545" r="105"/><path d="m361 105c0 57.9-47.1 105-105 105v-210c57.9 0 105 47.1 105 105z" fill="#cc2929"/><circle cx="256" cy="105" fill="#f2f2fc" r="75"/><path d="m331 105c0 41.4-33.6 75-75 75v-150c41.4 0 75 33.6 75 75z" fill="#e2d9fb"/><path d="m61 452h391v30h-391z" fill="#474f54"/><path d="m256 452h196v30h-196z" fill="#32393f"/><g><path d="m15 332h91v30h-91z" fill="#e2d9fb"/></g><g><path d="m406 332h91v30h-91z" fill="#c5bee5"/></g><path d="m406 407h61v105h-61z" fill="#32393f"/><path d="m45 407h61v105h-61z" fill="#474f54"/><path d="m436 285v122h-120l-15-22.8v-75.901l15-23.299c0-24.901 20.099-45 45-45h30c24.901 0 45 20.099 45 45z" fill="#e64545"/><path d="m436 285v122h-60v-167h15c24.901 0 45 20.099 45 45z" fill="#cc2929"/><path d="m316 285v122h-120l-15-22.8v-75.901l15-23.299c0-24.901 20.099-45 45-45h30c24.901 0 45 20.099 45 45z" fill="#e64545"/><path d="m316 285v122h-60v-167h15c24.901 0 45 20.099 45 45z" fill="#cc2929"/><path d="m196 285v122h-120v-122c0-24.901 20.099-45 45-45h30c24.901 0 45 20.099 45 45z" fill="#e64545"/><path d="m196 285v122h-60v-167h15c24.901 0 45 20.099 45 45z" fill="#cc2929"/><g><path d="m512 302v75c0 24.899-20.099 45-45 45h-422c-24.901 0-45-20.101-45-45v-75h30v75c0 8.399 6.599 15 15 15h422c8.401 0 15-6.601 15-15v-75z" fill="#575f64"/></g><path d="m512 302v75c0 24.899-20.099 45-45 45h-211v-30h211c8.401 0 15-6.601 15-15v-75z" fill="#474f54"/><path d="m271 90v-30h-15-15v60h15 45v-30z" fill="#474f54"/><path d="m301 90h-30v-30h-15v60h45z" fill="#32393f"/></g></svg>